<svg data-v-fde0c5aa="" xmlns="http://www.w3.org/2000/svg" viewBox="0 0 300 300" class="iconAbove"><!----><defs data-v-fde0c5aa=""><!----></defs><rect data-v-fde0c5aa="" fill="#3F1CA2" x="0" y="0" width="300px" height="300px" class="logo-background-square"></rect><defs data-v-fde0c5aa=""><!----></defs><g data-v-fde0c5aa="" id="007ec7f4-bcd8-4a53-9b98-ba609e56a5ef" fill="#FFFFFF" transform="matrix(4.360221286982747,0,0,4.360221286982747,18.168706986698204,168.1782658922633)"><path d="M5.03 10.60L5.03 10.60L5.03 10.60Q5.03 12.42 3.63 13.89L3.63 13.89L3.63 13.89Q3.33 14.20 2.81 14.20L2.81 14.20L2.81 14.20Q1.97 14.20 1.43 13.78L1.43 13.78L1.43 13.78Q0.42 13.01 0.42 10.70L0.42 10.70L0.42 10.70Q0.42 9.17 1.04 7.48L1.04 7.48L1.04 7.48Q1.65 5.78 2.60 4.38L2.60 4.38L2.60 4.38Q2.74 4.21 2.81 4.21L2.81 4.21L2.81 4.21Q2.88 4.21 2.98 4.26L2.98 4.26L2.98 4.26Q3.07 4.30 3.17 4.35L3.17 4.35L3.17 4.35Q3.28 4.41 3.32 4.42L3.32 4.42L3.32 4.00L3.32 4.00Q3.23 3.84 3.23 3.71L3.23 3.71L3.23 3.71Q3.23 3.58 3.35 3.58L3.35 3.58L3.35 3.58Q3.46 3.58 3.58 3.63L3.58 3.63L3.58 3.63Q4.82 4.05 4.82 5.64L4.82 5.64L4.82 5.64Q4.82 6.55 4.35 7.50L4.35 7.50L4.35 7.50Q4.23 7.76 4.13 7.76L4.13 7.76L4.13 7.76Q4.06 7.76 3.92 7.53L3.92 7.53L3.92 7.53Q3.47 6.61 3.35 5.14L3.35 5.14L3.35 5.14Q3.14 5.14 3.04 5.29L3.04 5.29L3.04 5.29Q2.94 5.45 2.70 6.10L2.70 6.10L2.70 6.10Q1.82 8.48 1.82 10.99L1.82 10.99L1.82 10.99Q1.82 12.38 2.13 13.36L2.13 13.36L2.13 13.36Q3.04 12.50 3.70 11.23L3.70 11.23L3.70 11.23Q4.37 9.97 4.69 8.64L4.69 8.64L4.69 8.64Q5.03 9.74 5.03 10.60ZM9.03 9.52L10.33 9.55L10.33 9.55Q11.02 6.45 11.02 4.90L11.02 4.90L11.02 4.54L11.02 4.54Q11.02 4.30 11.14 4.18L11.14 4.18L11.14 4.18Q11.26 4.06 11.39 4.04L11.39 4.04L11.39 4.04Q11.52 4.02 11.92 4.02L11.92 4.02L11.92 4.02Q12.32 4.02 12.76 4.31L12.76 4.31L12.76 4.31Q13.20 4.61 13.20 5.11L13.20 5.11L13.20 5.11Q13.20 5.21 13.08 6.33L13.08 6.33L13.08 6.33Q12.95 7.45 12.91 9.20L12.91 9.20L12.91 9.20Q13.38 9.00 13.67 8.79L13.67 8.79L13.67 8.79Q13.96 8.57 14.06 8.57L14.06 8.57L14.06 8.57Q14.21 8.57 14.21 8.86L14.21 8.86L14.21 8.86Q14.21 9.14 13.78 9.58L13.78 9.58L13.78 9.58Q13.34 10.02 12.91 10.30L12.91 10.30L12.91 10.30Q12.91 10.61 12.94 11.28L12.94 11.28L12.94 11.28Q12.98 11.26 13.05 11.26L13.05 11.26L13.05 11.26Q13.13 11.26 13.21 11.30L13.21 11.30L13.21 11.30Q13.29 11.34 13.35 11.40L13.35 11.40L13.35 11.40Q13.41 11.45 13.50 11.56L13.50 11.56L13.50 11.56Q13.58 11.66 13.62 11.72L13.62 11.72L13.62 11.72Q13.66 11.77 13.73 11.88L13.73 11.88L13.73 11.88Q13.80 11.98 13.82 12.00L13.82 12.00L13.82 12.00Q14.07 12.38 14.07 12.59L14.07 12.59L14.07 12.59Q14.07 12.81 13.99 13.09L13.99 13.09L13.99 13.09Q13.66 13.92 13.55 14.53L13.55 14.53L13.55 14.53Q13.50 14.83 13.22 14.83L13.22 14.83L13.22 14.83Q12.91 14.83 12.79 14.66L12.79 14.66L12.79 14.66Q12.67 14.50 12.61 14.41L12.61 14.41L12.61 14.41Q12.54 14.31 12.50 14.13L12.50 14.13L12.50 14.13Q12.45 13.94 12.42 13.84L12.42 13.84L12.42 13.84Q12.39 13.73 12.36 13.51L12.36 13.51L12.36 13.51Q12.32 13.22 12.31 12.92L12.31 12.92L12.29 12.70L12.29 12.70Q12.24 12.03 12.15 10.65L12.15 10.65L12.15 10.65Q11.79 10.78 11.03 10.81L11.03 10.81L11.03 10.81Q10.81 11.82 10.58 12.66L10.58 12.66L10.58 12.66Q10.35 13.51 9.82 14.01L9.82 14.01L9.82 14.01Q9.30 14.52 8.54 14.52L8.54 14.52L8.54 14.52Q8.32 14.52 8.01 14.45L8.01 14.45L8.01 14.45Q6.20 13.96 5.54 12.17L5.54 12.17L5.54 12.17Q5.38 11.70 5.38 11.35L5.38 11.35L5.38 11.35Q5.38 10.51 6.08 10.21L6.08 10.21L6.08 10.21Q7.59 9.52 9.03 9.52L9.03 9.52ZM12.10 9.41L12.10 9.41L12.10 9.41Q12.04 8.18 11.98 5.66L11.98 5.66L11.98 5.66Q11.87 6.30 11.64 7.59L11.64 7.59L11.64 7.59Q11.41 8.88 11.30 9.52L11.30 9.52L11.30 9.52Q11.83 9.46 12.10 9.41ZM10.01 10.82L10.01 10.82L9.11 10.82L9.11 10.82Q7.41 10.82 6.38 11.06L6.38 11.06L6.38 11.06Q5.81 11.17 5.81 11.48L5.81 11.48L5.81 11.48Q5.81 11.72 6.19 12.10L6.19 12.10L6.19 12.10Q6.57 12.47 7.17 12.68L7.17 12.68L7.17 12.68Q7.77 12.88 8.18 12.88L8.18 12.88L8.18 12.88Q8.58 12.88 8.86 12.74L8.86 12.74L8.86 12.74Q9.13 12.60 9.29 12.45L9.29 12.45L9.29 12.45Q9.45 12.29 9.60 11.94L9.60 11.94L9.60 11.94Q9.80 11.51 10.01 10.82ZM14.32 4.26L14.32 4.26L14.66 4.31L14.66 4.31Q14.81 4.31 15.09 4.23L15.09 4.23L15.09 4.23Q16.60 3.75 17.45 3.75L17.45 3.75L17.45 3.75Q18.30 3.75 18.98 4.01L18.98 4.01L18.98 4.01Q19.67 4.27 20.16 4.83L20.16 4.83L20.16 4.83Q20.65 5.39 20.65 6.03L20.65 6.03L20.65 6.03Q20.65 6.68 20.39 7.19L20.39 7.19L20.39 7.19Q20.13 7.70 19.67 8.11L19.67 8.11L19.67 8.11Q18.86 8.79 17.78 9.32L17.78 9.32L17.78 9.32Q18.70 9.81 18.70 11.05L18.70 11.05L18.69 11.65L18.69 11.65Q18.69 12.61 19.19 12.61L19.19 12.61L19.19 12.61Q19.71 12.61 20.26 12.17L20.26 12.17L20.26 12.17Q20.44 12.03 20.48 12.03L20.48 12.03L20.48 12.03Q20.59 12.03 20.59 12.19L20.59 12.19L20.59 12.19Q20.59 12.68 19.98 13.50L19.98 13.50L19.98 13.50Q19.61 13.93 19.15 13.93L19.15 13.93L19.15 13.93Q18.52 13.93 18.11 13.24L18.11 13.24L18.11 13.24Q17.70 12.56 17.70 11.89L17.70 11.89L17.72 11.14L17.72 11.14Q17.72 10.21 17.43 9.95L17.43 9.95L17.43 9.95Q17.28 9.83 17.02 9.70L17.02 9.70L16.58 9.91L16.58 9.91Q16.39 11.27 16.39 12.10L16.39 12.10L16.41 13.31L16.41 13.31Q16.41 13.83 16.11 13.83L16.11 13.83L16.11 13.83Q16.00 13.83 15.78 13.71L15.78 13.71L15.78 13.71Q14.88 13.15 14.57 11.69L14.57 11.69L14.57 11.69Q14.56 11.62 14.56 11.58L14.56 11.58L14.56 11.58Q14.56 11.45 14.76 11.45L14.76 11.45L14.76 11.45Q14.97 11.45 15.11 11.57L15.11 11.57L15.11 11.57Q15.26 11.69 15.33 11.81L15.33 11.81L15.33 11.81Q15.40 11.93 15.44 11.93L15.44 11.93L15.44 11.93Q15.57 11.93 15.57 11.69L15.57 11.69L15.51 11.03L15.51 11.03Q15.55 8.86 15.86 6.54L15.86 6.54L15.86 6.54Q15.96 5.92 16.00 5.75L16.00 5.75L16.00 5.75Q16.04 5.59 16.04 5.51L16.04 5.51L16.04 5.51Q16.04 5.43 16.03 5.39L16.03 5.39L16.03 5.39Q15.48 5.54 15.27 5.76L15.27 5.76L15.27 5.76Q15.05 5.98 14.89 5.98L14.89 5.98L14.89 5.98Q14.73 5.98 14.64 5.95L14.64 5.95L14.64 5.95Q14.55 5.92 14.47 5.83L14.47 5.83L14.47 5.83Q14.39 5.74 14.35 5.70L14.35 5.70L14.35 5.70Q14.07 5.29 14.07 4.98L14.07 4.98L14.07 4.98Q14.07 4.26 14.32 4.26ZM19.53 5.81L19.53 5.81L19.53 5.81Q19.53 5.46 18.91 5.30L18.91 5.30L18.91 5.30Q18.28 5.14 17.82 5.14L17.82 5.14L17.82 5.14Q17.35 5.14 17.00 5.19L17.00 5.19L17.00 5.19Q16.95 5.36 16.95 6.15L16.95 6.15L16.95 6.15Q16.95 6.94 16.79 8.36L16.79 8.36L16.79 8.36Q18.47 7.73 19.45 6.09L19.45 6.09L19.45 6.09Q19.53 5.92 19.53 5.81ZM23.59 4.26L23.59 4.26L23.93 4.31L23.93 4.31Q24.08 4.31 24.36 4.23L24.36 4.23L24.36 4.23Q25.87 3.75 26.72 3.75L26.72 3.75L26.72 3.75Q27.57 3.75 28.25 4.01L28.25 4.01L28.25 4.01Q28.94 4.27 29.43 4.83L29.43 4.83L29.43 4.83Q29.92 5.39 29.92 6.03L29.92 6.03L29.92 6.03Q29.92 6.68 29.66 7.19L29.66 7.19L29.66 7.19Q29.40 7.70 28.94 8.11L28.94 8.11L28.94 8.11Q28.13 8.79 27.05 9.32L27.05 9.32L27.05 9.32Q27.97 9.81 27.97 11.05L27.97 11.05L27.96 11.65L27.96 11.65Q27.96 12.61 28.46 12.61L28.46 12.61L28.46 12.61Q28.98 12.61 29.53 12.17L29.53 12.17L29.53 12.17Q29.71 12.03 29.75 12.03L29.75 12.03L29.75 12.03Q29.86 12.03 29.86 12.19L29.86 12.19L29.86 12.19Q29.86 12.68 29.25 13.50L29.25 13.50L29.25 13.50Q28.88 13.93 28.42 13.93L28.42 13.93L28.42 13.93Q27.79 13.93 27.38 13.24L27.38 13.24L27.38 13.24Q26.96 12.56 26.96 11.89L26.96 11.89L26.99 11.14L26.99 11.14Q26.99 10.21 26.70 9.95L26.70 9.95L26.70 9.95Q26.54 9.83 26.29 9.70L26.29 9.70L25.84 9.91L25.84 9.91Q25.66 11.27 25.66 12.10L25.66 12.10L25.68 13.31L25.68 13.31Q25.68 13.83 25.38 13.83L25.38 13.83L25.38 13.83Q25.27 13.83 25.05 13.71L25.05 13.71L25.05 13.71Q24.15 13.15 23.84 11.69L23.84 11.69L23.84 11.69Q23.83 11.62 23.83 11.58L23.83 11.58L23.83 11.58Q23.83 11.45 24.03 11.45L24.03 11.45L24.03 11.45Q24.23 11.45 24.38 11.57L24.38 11.57L24.38 11.57Q24.53 11.69 24.60 11.81L24.60 11.81L24.60 11.81Q24.67 11.93 24.71 11.93L24.71 11.93L24.71 11.93Q24.84 11.93 24.84 11.69L24.84 11.69L24.78 11.03L24.78 11.03Q24.82 8.86 25.13 6.54L25.13 6.54L25.13 6.54Q25.23 5.92 25.27 5.75L25.27 5.75L25.27 5.75Q25.31 5.59 25.31 5.51L25.31 5.51L25.31 5.51Q25.31 5.43 25.30 5.39L25.30 5.39L25.30 5.39Q24.75 5.54 24.54 5.76L24.54 5.76L24.54 5.76Q24.32 5.98 24.16 5.98L24.16 5.98L24.16 5.98Q24.00 5.98 23.91 5.95L23.91 5.95L23.91 5.95Q23.81 5.92 23.74 5.83L23.74 5.83L23.74 5.83Q23.66 5.74 23.62 5.70L23.62 5.70L23.62 5.70Q23.34 5.29 23.34 4.98L23.34 4.98L23.34 4.98Q23.34 4.26 23.59 4.26ZM28.80 5.81L28.80 5.81L28.80 5.81Q28.80 5.46 28.18 5.30L28.18 5.30L28.18 5.30Q27.55 5.14 27.08 5.14L27.08 5.14L27.08 5.14Q26.61 5.14 26.26 5.19L26.26 5.19L26.26 5.19Q26.22 5.36 26.22 6.15L26.22 6.15L26.22 6.15Q26.22 6.94 26.05 8.36L26.05 8.36L26.05 8.36Q27.73 7.73 28.71 6.09L28.71 6.09L28.71 6.09Q28.80 5.92 28.80 5.81ZM31.95 7.53L31.95 7.53L31.95 7.53Q31.95 8.01 33.89 8.01L33.89 8.01L34.13 8.01L34.13 8.01Q34.51 7.80 34.61 7.80L34.61 7.80L34.61 7.80Q34.85 7.80 35.20 8.18L35.20 8.18L35.20 8.18Q35.56 8.57 35.56 9.07L35.56 9.07L35.56 9.07Q35.56 9.24 35.38 9.24L35.38 9.24L35.38 9.24Q35.32 9.24 34.86 9.16L34.86 9.16L34.86 9.16Q34.72 9.20 34.34 9.31L34.34 9.31L34.34 9.31Q33.95 9.42 33.81 9.46L33.81 9.46L33.81 9.46Q33.67 9.51 33.35 9.62L33.35 9.62L33.35 9.62Q33.03 9.73 32.88 9.81L32.88 9.81L32.88 9.81Q32.73 9.88 32.47 10.02L32.47 10.02L32.47 10.02Q32.21 10.16 32.05 10.32L32.05 10.32L32.05 10.32Q31.51 10.84 31.32 11.13L31.32 11.13L31.32 11.13Q30.95 11.63 30.95 12.17L30.95 12.17L30.95 12.17Q30.95 12.71 31.21 12.98L31.21 12.98L31.21 12.98Q31.46 13.26 32.04 13.26L32.04 13.26L32.04 13.26Q32.62 13.26 33.43 12.97L33.43 12.97L33.43 12.97Q34.23 12.68 34.23 12.14L34.23 12.14L34.23 12.14Q34.23 11.96 34.15 11.78L34.15 11.78L34.15 11.78Q34.06 11.61 33.87 11.61L33.87 11.61L33.87 11.61Q33.68 11.61 32.73 12.17L32.73 12.17L32.73 12.17Q31.77 12.74 31.71 12.74L31.71 12.74L31.71 12.74Q31.65 12.74 31.65 12.62L31.65 12.62L31.65 12.62Q31.65 12.50 31.75 12.33L31.75 12.33L31.75 12.33Q32.16 11.65 32.82 11.24L32.82 11.24L32.82 11.24Q33.47 10.84 34.19 10.84L34.19 10.84L34.19 10.84Q34.90 10.84 35.40 11.26L35.40 11.26L35.40 11.26Q35.90 11.68 35.90 12.21L35.90 12.21L35.90 12.21Q35.90 12.75 35.62 13.12L35.62 13.12L35.62 13.12Q34.76 14.24 32.37 14.24L32.37 14.24L32.37 14.24Q30.88 14.24 30.17 13.09L30.17 13.09L30.17 13.09Q29.78 12.49 29.78 11.93L29.78 11.93L29.78 11.93Q29.78 11.37 30.13 10.56L30.13 10.56L30.13 10.56Q30.48 9.76 31.06 9.35L31.06 9.35L31.06 9.35Q31.64 8.95 32.55 8.62L32.55 8.62L32.55 8.62Q31.19 8.19 31.19 6.90L31.19 6.90L31.19 6.90Q31.19 6.13 31.84 5.59L31.84 5.59L31.84 5.59Q32.38 5.11 33.27 4.60L33.27 4.60L33.27 4.60Q34.16 4.09 34.38 3.94L34.38 3.94L34.38 3.94Q34.61 3.79 34.86 3.79L34.86 3.79L34.86 3.79Q35.11 3.79 35.43 4.17L35.43 4.17L35.43 4.17Q35.60 4.14 35.67 4.14L35.67 4.14L35.67 4.14Q35.99 4.14 36.13 4.42L36.13 4.42L36.13 4.42Q36.25 4.69 36.25 4.77L36.25 4.77L36.25 4.77Q36.25 5.28 34.10 6.13L34.10 6.13L34.10 6.13Q34.02 6.16 33.99 6.16L33.99 6.16L33.99 6.16Q33.91 6.16 33.91 6.04L33.91 6.04L33.91 6.04Q33.91 5.92 34.05 5.50L34.05 5.50L33.59 5.73L33.59 5.73Q32.77 6.15 32.59 6.34L32.59 6.34L32.59 6.34Q32.26 6.75 32.10 7.10L32.10 7.10L32.10 7.10Q31.95 7.45 31.95 7.53ZM37.37 11.73L37.37 11.73L37.32 10.36L37.32 10.36Q37.32 7.70 38.00 5.46L38.00 5.46L38.00 5.46Q37.72 5.66 37.53 5.89L37.53 5.89L37.53 5.89Q37.07 6.50 36.62 6.50L36.62 6.50L36.62 6.50Q36.16 6.50 36.16 5.89L36.16 5.89L36.16 5.89Q36.16 4.94 36.81 4.59L36.81 4.59L36.81 4.59Q37.37 4.27 38.12 4.01L38.12 4.01L38.12 4.01Q38.86 3.75 39.41 3.75L39.41 3.75L39.41 3.75Q40.64 3.75 41.43 4.72L41.43 4.72L41.43 4.72Q42.21 5.68 42.21 6.93L42.21 6.93L42.21 6.93Q42.21 7.70 41.94 8.53L41.94 8.53L41.94 8.53Q41.52 9.79 40.33 10.19L40.33 10.19L40.33 10.19Q39.69 10.42 39.14 10.42L39.14 10.42L39.14 10.42Q38.60 10.42 38.32 10.15L38.32 10.15L38.32 10.75L38.32 10.75Q38.32 11.84 38.44 12.94L38.44 12.94L38.46 13.15L38.46 13.15Q38.46 13.61 38.02 13.83L38.02 13.83L38.02 13.83Q37.72 14 37.46 14L37.46 14L37.46 14Q37.21 14 36.93 13.54L36.93 13.54L36.93 13.54Q36.47 12.80 36.15 11.42L36.15 11.42L36.15 11.42Q36.11 11.24 36.11 11.12L36.11 11.12L36.11 11.12Q36.11 11.00 36.21 11.00L36.21 11.00L36.21 11.00Q36.32 11.00 36.76 11.49L36.76 11.49L36.76 11.49Q37.20 11.98 37.28 11.98L37.28 11.98L37.28 11.98Q37.37 11.98 37.37 11.73ZM41.47 6.45L41.47 6.45L41.47 6.45Q41.47 5.64 40.91 5.25L40.91 5.25L40.91 5.25Q40.35 4.86 39.48 4.86L39.48 4.86L39.48 4.86Q38.96 4.86 38.64 5.07L38.64 5.07L38.64 5.07Q38.71 5.38 38.71 5.56L38.71 5.56L38.71 5.56Q38.71 5.75 38.68 6.02L38.68 6.02L38.68 6.02Q38.65 6.29 38.58 6.92L38.58 6.92L38.58 6.92Q38.51 7.55 38.49 7.87L38.49 7.87L38.49 7.87Q38.86 7.42 39.66 7.42L39.66 7.42L39.66 7.42Q39.87 7.42 39.87 7.48L39.87 7.48L39.87 7.48Q39.87 7.55 39.73 7.55L39.73 7.55L39.73 7.55Q38.78 7.55 38.78 8.12L38.78 8.12L38.78 8.12Q38.78 8.79 39.30 8.79L39.30 8.79L39.30 8.79Q39.40 8.79 39.56 8.76L39.56 8.76L39.56 8.76Q41.47 8.36 41.47 6.45ZM44.32 9.52L45.63 9.55L45.63 9.55Q46.31 6.45 46.31 4.90L46.31 4.90L46.31 4.54L46.31 4.54Q46.31 4.30 46.43 4.18L46.43 4.18L46.43 4.18Q46.55 4.06 46.68 4.04L46.68 4.04L46.68 4.04Q46.82 4.02 47.22 4.02L47.22 4.02L47.22 4.02Q47.61 4.02 48.06 4.31L48.06 4.31L48.06 4.31Q48.50 4.61 48.50 5.11L48.50 5.11L48.50 5.11Q48.50 5.21 48.37 6.33L48.37 6.33L48.37 6.33Q48.24 7.45 48.20 9.20L48.20 9.20L48.20 9.20Q48.68 9.00 48.97 8.79L48.97 8.79L48.97 8.79Q49.25 8.57 49.35 8.57L49.35 8.57L49.35 8.57Q49.50 8.57 49.50 8.86L49.50 8.86L49.50 8.86Q49.50 9.14 49.07 9.58L49.07 9.58L49.07 9.58Q48.64 10.02 48.20 10.30L48.20 10.30L48.20 10.30Q48.20 10.61 48.23 11.28L48.23 11.28L48.23 11.28Q48.27 11.26 48.35 11.26L48.35 11.26L48.35 11.26Q48.43 11.26 48.50 11.30L48.50 11.30L48.50 11.30Q48.58 11.34 48.64 11.40L48.64 11.40L48.64 11.40Q48.71 11.45 48.79 11.56L48.79 11.56L48.79 11.56Q48.87 11.66 48.92 11.72L48.92 11.72L48.92 11.72Q48.96 11.77 49.03 11.88L49.03 11.88L49.03 11.88Q49.10 11.98 49.11 12.00L49.11 12.00L49.11 12.00Q49.36 12.38 49.36 12.59L49.36 12.59L49.36 12.59Q49.36 12.81 49.28 13.09L49.28 13.09L49.28 13.09Q48.96 13.92 48.85 14.53L48.85 14.53L48.85 14.53Q48.79 14.83 48.51 14.83L48.51 14.83L48.51 14.83Q48.20 14.83 48.08 14.66L48.08 14.66L48.08 14.66Q47.96 14.50 47.90 14.41L47.90 14.41L47.90 14.41Q47.84 14.31 47.79 14.13L47.79 14.13L47.79 14.13Q47.74 13.94 47.71 13.84L47.71 13.84L47.71 13.84Q47.68 13.73 47.66 13.51L47.66 13.51L47.66 13.51Q47.61 13.22 47.60 12.92L47.60 12.92L47.59 12.70L47.59 12.70Q47.53 12.03 47.45 10.65L47.45 10.65L47.45 10.65Q47.08 10.78 46.33 10.81L46.33 10.81L46.33 10.81Q46.10 11.82 45.87 12.66L45.87 12.66L45.87 12.66Q45.64 13.51 45.12 14.01L45.12 14.01L45.12 14.01Q44.59 14.52 43.83 14.52L43.83 14.52L43.83 14.52Q43.61 14.52 43.30 14.45L43.30 14.45L43.30 14.45Q41.50 13.96 40.84 12.17L40.84 12.17L40.84 12.17Q40.67 11.70 40.67 11.35L40.67 11.35L40.67 11.35Q40.67 10.51 41.37 10.21L41.37 10.21L41.37 10.21Q42.88 9.52 44.32 9.52L44.32 9.52ZM47.39 9.41L47.39 9.41L47.39 9.41Q47.33 8.18 47.28 5.66L47.28 5.66L47.28 5.66Q47.17 6.30 46.94 7.59L46.94 7.59L46.94 7.59Q46.70 8.88 46.59 9.52L46.59 9.52L46.59 9.52Q47.12 9.46 47.39 9.41ZM45.30 10.82L45.30 10.82L44.41 10.82L44.41 10.82Q42.70 10.82 41.68 11.06L41.68 11.06L41.68 11.06Q41.10 11.17 41.10 11.48L41.10 11.48L41.10 11.48Q41.10 11.72 41.48 12.10L41.48 12.10L41.48 12.10Q41.86 12.47 42.46 12.68L42.46 12.68L42.46 12.68Q43.06 12.88 43.47 12.88L43.47 12.88L43.47 12.88Q43.88 12.88 44.15 12.74L44.15 12.74L44.15 12.74Q44.42 12.60 44.58 12.45L44.58 12.45L44.58 12.45Q44.74 12.29 44.90 11.94L44.90 11.94L44.90 11.94Q45.09 11.51 45.30 10.82ZM52.40 5.29L52.40 4.86L52.40 4.86Q52.40 4.38 52.21 4.38L52.21 4.38L52.21 4.38Q52.01 4.38 51.81 4.68L51.81 4.68L51.81 4.68Q51.60 4.97 51.60 5.08L51.60 5.08L51.60 5.08Q51.60 5.19 51.67 5.50L51.67 5.50L51.67 5.50Q51.74 5.81 51.74 6.14L51.74 6.14L51.74 6.14Q51.74 6.47 51.51 7.51L51.51 7.51L51.51 7.51Q51.27 8.55 51.12 8.90L51.12 8.90L51.12 8.90Q50.97 9.24 50.78 9.24L50.78 9.24L50.78 9.24Q50.62 9.24 50.51 9.11L50.51 9.11L50.51 9.11Q50.39 8.97 50.23 8.71L50.23 8.71L50.23 8.71Q50.06 8.44 49.92 8.25L49.92 8.25L49.92 8.25Q49.78 8.06 49.78 7.83L49.78 7.83L49.78 7.83Q49.78 7.59 50.22 6.62L50.22 6.62L50.22 6.62Q50.65 5.64 50.95 5.07L50.95 5.07L50.95 5.07Q50.75 4.83 50.75 4.75L50.75 4.75L50.75 4.75Q50.75 4.58 50.99 4.58L50.99 4.58L50.99 4.58Q51.06 4.58 51.17 4.63L51.17 4.63L51.17 4.63Q51.20 4.59 51.30 4.40L51.30 4.40L51.30 4.40Q51.39 4.21 51.44 4.14L51.44 4.14L51.44 4.14Q51.48 4.07 51.58 3.93L51.58 3.93L51.58 3.93Q51.69 3.78 51.77 3.71L51.77 3.71L51.77 3.71Q52.04 3.54 52.28 3.54L52.28 3.54L52.28 3.54Q53.33 3.54 53.31 6.59L53.31 6.59L53.31 6.59Q53.31 6.68 53.31 6.72L53.31 6.72L53.31 6.72Q53.31 9.95 52.56 14.13L52.56 14.13L52.56 14.13Q52.49 14.43 52.25 14.43L52.25 14.43L52.25 14.43Q51.98 14.43 51.63 14.10L51.63 14.10L51.63 14.10Q51.28 13.76 51.10 13.58L51.10 13.58L51.10 13.58Q50.61 13.09 50.44 12.87L50.44 12.87L50.44 12.87Q50.23 12.63 50.23 12.42L50.23 12.42L50.23 12.42Q50.23 12.21 50.39 11.89L50.39 11.89L50.39 11.89Q50.55 11.58 50.74 11.58L50.74 11.58L50.74 11.58Q50.92 11.58 51.09 11.87L51.09 11.87L51.09 11.87Q51.27 12.17 51.38 12.17L51.38 12.17L51.38 12.17Q51.49 12.17 51.53 11.95L51.53 11.95L51.53 11.95Q51.56 11.73 51.60 11.34L51.60 11.34L51.60 11.34Q51.72 10.51 52.06 8.41L52.06 8.41L52.06 8.41Q52.40 6.31 52.40 5.29L52.40 5.29ZM53.72 4.26L53.72 4.26L54.05 4.31L54.05 4.31Q54.21 4.31 54.49 4.23L54.49 4.23L54.49 4.23Q56.00 3.75 56.85 3.75L56.85 3.75L56.85 3.75Q57.69 3.75 58.38 4.01L58.38 4.01L58.38 4.01Q59.07 4.27 59.56 4.83L59.56 4.83L59.56 4.83Q60.05 5.39 60.05 6.03L60.05 6.03L60.05 6.03Q60.05 6.68 59.79 7.19L59.79 7.19L59.79 7.19Q59.53 7.70 59.07 8.11L59.07 8.11L59.07 8.11Q58.25 8.79 57.18 9.32L57.18 9.32L57.18 9.32Q58.10 9.81 58.10 11.05L58.10 11.05L58.09 11.65L58.09 11.65Q58.09 12.61 58.59 12.61L58.59 12.61L58.59 12.61Q59.11 12.61 59.65 12.17L59.65 12.17L59.65 12.17Q59.84 12.03 59.88 12.03L59.88 12.03L59.88 12.03Q59.99 12.03 59.99 12.19L59.99 12.19L59.99 12.19Q59.99 12.68 59.37 13.50L59.37 13.50L59.37 13.50Q59.01 13.93 58.55 13.93L58.55 13.93L58.55 13.93Q57.92 13.93 57.51 13.24L57.51 13.24L57.51 13.24Q57.09 12.56 57.09 11.89L57.09 11.89L57.12 11.14L57.12 11.14Q57.12 10.21 56.83 9.95L56.83 9.95L56.83 9.95Q56.67 9.83 56.42 9.70L56.42 9.70L55.97 9.91L55.97 9.91Q55.79 11.27 55.79 12.10L55.79 12.10L55.80 13.31L55.80 13.31Q55.80 13.83 55.51 13.83L55.51 13.83L55.51 13.83Q55.40 13.83 55.17 13.71L55.17 13.71L55.17 13.71Q54.28 13.15 53.97 11.69L53.97 11.69L53.97 11.69Q53.96 11.62 53.96 11.58L53.96 11.58L53.96 11.58Q53.96 11.45 54.16 11.45L54.16 11.45L54.16 11.45Q54.36 11.45 54.51 11.57L54.51 11.57L54.51 11.57Q54.66 11.69 54.73 11.81L54.73 11.81L54.73 11.81Q54.80 11.93 54.84 11.93L54.84 11.93L54.84 11.93Q54.96 11.93 54.96 11.69L54.96 11.69L54.91 11.03L54.91 11.03Q54.95 8.86 55.26 6.54L55.26 6.54L55.26 6.54Q55.36 5.92 55.40 5.75L55.40 5.75L55.40 5.75Q55.44 5.59 55.44 5.51L55.44 5.51L55.44 5.51Q55.44 5.43 55.43 5.39L55.43 5.39L55.43 5.39Q54.88 5.54 54.66 5.76L54.66 5.76L54.66 5.76Q54.45 5.98 54.29 5.98L54.29 5.98L54.29 5.98Q54.12 5.98 54.03 5.95L54.03 5.95L54.03 5.95Q53.94 5.92 53.87 5.83L53.87 5.83L53.87 5.83Q53.79 5.74 53.75 5.70L53.75 5.70L53.75 5.70Q53.47 5.29 53.47 4.98L53.47 4.98L53.47 4.98Q53.47 4.26 53.72 4.26ZM58.93 5.81L58.93 5.81L58.93 5.81Q58.93 5.46 58.30 5.30L58.30 5.30L58.30 5.30Q57.68 5.14 57.21 5.14L57.21 5.14L57.21 5.14Q56.74 5.14 56.39 5.19L56.39 5.19L56.39 5.19Q56.35 5.36 56.35 6.15L56.35 6.15L56.35 6.15Q56.35 6.94 56.18 8.36L56.18 8.36L56.18 8.36Q57.86 7.73 58.84 6.09L58.84 6.09L58.84 6.09Q58.93 5.92 58.93 5.81Z"></path></g><defs data-v-fde0c5aa=""><!----></defs><g data-v-fde0c5aa="" id="b9cf6667-21a8-4a1c-9dee-8ae40615b3ec" stroke="none" fill="#DF98E2" transform="matrix(3.076681135231623,0,0,3.076681135231623,100.77310183629403,67.15965275444105)"><path d="M31 1v30H1V1h30m1-1H0v32h32V0z"></path><path d="M24.12 1v24.608L7.88 9.368V1h16.24m1-1H6.88v9.783l18.24 18.239V0z"></path></g><!----></svg>